<svg xmlns="http://www.w3.org/2000/svg" xmlns:xlink="http://www.w3.org/1999/xlink" viewBox="0 0 750 85" enable-background="new 0 0 750 85"><style type="text/css">.st0{fill:#FFFFFF;} .st1{clip-path:url(#SVGID_2_);} .st2{clip-path:url(#SVGID_4_);fill:#056187;} .st3{clip-path:url(#SVGID_6_);} .st4{clip-path:url(#SVGID_8_);fill:#00739E;} .st5{clip-path:url(#SVGID_10_);} .st6{clip-path:url(#SVGID_12_);fill:#006991;} .st7{clip-path:url(#SVGID_14_);} .st8{clip-path:url(#SVGID_16_);fill:#0380B2;} .st9{clip-path:url(#SVGID_18_);} .st10{clip-path:url(#SVGID_20_);fill:#2E91BA;} .st11{clip-path:url(#SVGID_22_);} .st12{clip-path:url(#SVGID_24_);fill:#0080B2;} .st13{clip-path:url(#SVGID_26_);} .st14{clip-path:url(#SVGID_28_);fill:#1787B5;} .st15{clip-path:url(#SVGID_30_);} .st16{clip-path:url(#SVGID_32_);fill:#2B99C2;} .st17{clip-path:url(#SVGID_34_);} .st18{clip-path:url(#SVGID_36_);fill:#0073A1;} .st19{clip-path:url(#SVGID_38_);} .st20{clip-path:url(#SVGID_40_);fill:#42B5D6;} .st21{clip-path:url(#SVGID_42_);} .st22{clip-path:url(#SVGID_44_);fill:#058ABF;} .st23{clip-path:url(#SVGID_46_);} .st24{clip-path:url(#SVGID_48_);fill:#0A5473;} .st25{clip-path:url(#SVGID_50_);} .st26{clip-path:url(#SVGID_52_);fill:#054D69;} .st27{clip-path:url(#SVGID_54_);} .st28{clip-path:url(#SVGID_56_);fill:#056187;} .st29{clip-path:url(#SVGID_58_);} .st30{clip-path:url(#SVGID_60_);fill:#036EA1;} .st31{clip-path:url(#SVGID_62_);} .st32{clip-path:url(#SVGID_64_);fill:#0080B2;} .st33{clip-path:url(#SVGID_66_);} .st34{clip-path:url(#SVGID_68_);fill:#0075A8;} .st35{clip-path:url(#SVGID_70_);} .st36{clip-path:url(#SVGID_72_);fill:#0391C2;} .st37{clip-path:url(#SVGID_74_);} .st38{clip-path:url(#SVGID_76_);fill:#269EC7;} .st39{clip-path:url(#SVGID_78_);} .st40{clip-path:url(#SVGID_80_);fill:#0091C2;} .st41{clip-path:url(#SVGID_82_);} .st42{clip-path:url(#SVGID_84_);fill:#1296C4;} .st43{clip-path:url(#SVGID_86_);} .st44{clip-path:url(#SVGID_88_);fill:#26A6D1;} .st45{clip-path:url(#SVGID_90_);} .st46{clip-path:url(#SVGID_92_);fill:#0080B5;} .st47{clip-path:url(#SVGID_94_);} .st48{clip-path:url(#SVGID_96_);fill:#38BFDE;} .st49{clip-path:url(#SVGID_98_);} .st50{clip-path:url(#SVGID_100_);fill:#0599CC;} .st51{clip-path:url(#SVGID_102_);} .st52{clip-path:url(#SVGID_104_);fill:#0A618A;} .st53{clip-path:url(#SVGID_106_);} .st54{clip-path:url(#SVGID_108_);fill:#055780;} .st55{clip-path:url(#SVGID_110_);} .st56{clip-path:url(#SVGID_112_);fill:#036EA1;}</style><path class="st0" d="M129.4 48.6l-2.5 6.9c-.2.5-.3 1-.4 1.5s-.2.9-.2 1.3c0 1.1.4 1.9 1.1 2.4s1.8.8 3.3.8h1.5v2.7h-15.9v-2.7h1.2c.6 0 1.2-.1 1.6-.2.4-.1.8-.4 1.2-.8s.7-.9 1-1.6.7-1.5 1.1-2.6l14.5-38.8h5.1l14.8 40.4c.3.7.5 1.2.8 1.7.3.4.6.8.9 1.1.4.3.8.5 1.2.6.5.1 1 .2 1.7.2h.9v2.7h-17.9v-2.7h1.5c2.6 0 3.9-1 3.9-3.1 0-.4 0-.7-.1-1.1s-.2-.8-.4-1.3l-2.6-7.3-17.3-.1zm11.9-14.7c-.7-1.9-1.3-3.7-1.9-5.4-.6-1.7-1-3.3-1.4-4.9-.1.8-.3 1.5-.5 2.3-.2.7-.4 1.5-.7 2.2-.2.8-.5 1.6-.8 2.4s-.6 1.8-1 2.8l-4.4 12h14.7l-4-11.4zM185.1 16.9c2.2 0 4.2.2 5.8.6s3 .9 4.1 1.5c1.1.7 1.9 1.4 2.5 2.3.5.9.8 1.9.8 2.9 0 .7-.1 1.3-.4 1.9-.3.6-.7 1-1.2 1.4s-1.1.7-1.8.9c-.7.2-1.4.3-2.2.3 0-1-.1-2-.4-3s-.7-1.9-1.3-2.7-1.4-1.4-2.4-1.9-2.2-.7-3.6-.7c-2.5 0-4.6.5-6.3 1.4s-3.1 2.2-4.2 4c-1.1 1.7-1.9 3.9-2.4 6.4s-.7 5.4-.7 8.7c0 2.9.3 5.6.8 8s1.3 4.5 2.4 6.2 2.5 3.1 4.2 4c1.7 1 3.8 1.4 6.2 1.4 1.6 0 3-.2 4.2-.5s2.3-.7 3.2-1.2 1.8-1.1 2.5-1.8 1.3-1.4 1.9-2.1c.4.2.7.6.9 1s.4.9.4 1.6c0 .8-.3 1.7-.8 2.5s-1.4 1.6-2.6 2.3c-1.1.7-2.6 1.3-4.4 1.7-1.8.5-3.9.7-6.3.7-3.3 0-6.1-.6-8.6-1.7s-4.5-2.8-6.2-4.9c-1.7-2.1-2.9-4.6-3.8-7.6-.8-3-1.3-6.2-1.3-9.8 0-3.5.4-6.8 1.3-9.7.9-2.9 2.2-5.5 4-7.6s3.9-3.7 6.6-4.9c2.6-1 5.6-1.6 9.1-1.6zM215.4 48.6l-2.5 6.9c-.2.5-.3 1-.4 1.5s-.2.9-.2 1.3c0 1.1.4 1.9 1.1 2.4s1.8.8 3.3.8h1.5v2.7h-15.9v-2.7h1.2c.6 0 1.2-.1 1.6-.2s.8-.4 1.2-.8.7-.9 1-1.6c.3-.7.7-1.5 1.1-2.6l14.5-38.8h5.1l14.8 40.4c.3.7.5 1.2.8 1.7.3.4.6.8.9 1.1.4.3.8.5 1.2.6.5.1 1 .2 1.7.2h.9v2.7h-17.9v-2.7h1.5c2.6 0 3.9-1 3.9-3.1 0-.4 0-.7-.1-1.1s-.2-.8-.4-1.3l-2.6-7.3-17.3-.1zm12-14.7c-.7-1.9-1.3-3.7-1.9-5.4-.6-1.7-1-3.3-1.4-4.9-.1.8-.3 1.5-.5 2.3-.2.7-.4 1.5-.7 2.2-.2.8-.5 1.6-.8 2.4s-.6 1.8-1 2.8l-4.4 12h14.7l-4-11.4zM294.3 40.8c0 3.6-.4 6.8-1.3 9.7s-2.2 5.3-4 7.4c-1.8 2-4 3.6-6.6 4.7-2.7 1.1-5.8 1.6-9.3 1.6h-20v-2.7h.8c.7 0 1.4-.1 2.1-.2.6-.1 1.2-.3 1.7-.7.5-.3.9-.8 1.1-1.4.3-.6.4-1.4.4-2.5v-32c0-1-.1-1.7-.4-2.3-.3-.6-.7-1-1.2-1.4-.5-.3-1.1-.5-1.7-.6s-1.3-.1-2.1-.1h-.8v-2.7h20c3.4 0 6.4.5 9 1.5s4.9 2.5 6.7 4.5c1.8 2 3.2 4.4 4.2 7.3.9 2.9 1.4 6.2 1.4 9.9zm-22.8 20.1c2.6 0 4.9-.4 6.8-1.3s3.6-2.2 4.9-3.9 2.3-3.8 2.9-6.3 1-5.3 1-8.6c0-6.5-1.3-11.4-3.9-14.9-2.6-3.4-6.5-5.1-11.6-5.1h-5.7v40l5.6.1zM311.7 60.9h12.6c1 0 1.9-.1 2.7-.4.7-.3 1.3-.7 1.8-1.2s.9-1.1 1.1-1.7c.3-.6.5-1.3.6-2.1l.4-2.8h3.4l-.4 11.4h-35v-2.7h.8c.7 0 1.4 0 2.1-.1.6-.1 1.2-.3 1.7-.6s.9-.7 1.2-1.3c.3-.6.4-1.4.4-2.3v-32.1c0-1-.1-1.8-.4-2.5-.3-.6-.7-1.1-1.1-1.4-.5-.3-1.1-.5-1.7-.7-.6-.1-1.3-.2-2.1-.2h-.8v-2.7h32.9l.3 11.4h-3.4l-.3-2.8c-.1-.7-.3-1.4-.5-2.1-.2-.6-.6-1.2-1.1-1.7s-1-.9-1.7-1.2c-.7-.3-1.5-.4-2.5-.4h-11v17.4h15.7v3.2h-15.7v19.6zM379.2 64.2v-2.7h.2c.7 0 1.3 0 1.9-.1s1-.3 1.4-.6.7-.7.9-1.2.4-1.3.4-2.2v-34.9l-15 41.7h-3.4l-15.1-41.6v34.2c0 1 .1 1.8.3 2.5.2.6.5 1.1.9 1.4s.9.5 1.5.7c.6.1 1.2.2 2 .2h.2v2.7h-15.1v-2.7h.8c.7 0 1.4 0 2.1-.1.6-.1 1.2-.3 1.7-.6s.9-.7 1.2-1.3c.3-.6.4-1.4.4-2.3v-32.5c0-1-.1-1.7-.4-2.3-.3-.6-.7-1-1.2-1.4s-1.1-.5-1.7-.6-1.3-.1-2.1-.1h-.8v-2.7h14.9l13.5 37.3 13.4-37.3h14.5v2.7h-.8c-.7 0-1.4.1-2.1.2-.6.1-1.2.3-1.7.7-.5.3-.9.8-1.1 1.4-.3.6-.4 1.4-.4 2.5v31.8c0 1 .1 1.8.4 2.5.3.6.7 1.1 1.1 1.4.5.3 1.1.5 1.7.7.6.1 1.3.2 2.1.2h.8v2.7h-17.4v-.3zM402.6 64.2v-2.7h.8c.7 0 1.4-.1 2.1-.2.6-.1 1.2-.3 1.7-.7.5-.3.9-.8 1.1-1.4.3-.6.4-1.4.4-2.5v-31.7c0-1-.1-1.8-.4-2.5-.3-.6-.7-1.1-1.1-1.4-.5-.3-1.1-.5-1.7-.7-.6-.1-1.3-.2-2.1-.2h-.8v-2.7h19v2.7h-.9c-.7 0-1.4.1-2.1.2s-1.2.3-1.7.7c-.5.3-.9.8-1.1 1.4-.3.6-.4 1.4-.4 2.5v31.8c0 1 .1 1.8.4 2.5.3.6.7 1.1 1.1 1.4.5.3 1 .5 1.7.7.7.1 1.4.2 2.1.2h.9v2.7h-19v-.1zM447.1 16.9c2.2 0 4.2.2 5.8.6 1.6.4 3 .9 4.1 1.5 1.1.7 1.9 1.4 2.5 2.3.5.9.8 1.9.8 2.9 0 .7-.1 1.3-.4 1.9s-.7 1-1.2 1.4-1.1.7-1.8.9c-.7.2-1.4.3-2.3.3 0-1-.1-2-.4-3s-.7-1.9-1.3-2.7c-.6-.8-1.4-1.4-2.4-1.9s-2.2-.7-3.6-.7c-2.5 0-4.6.5-6.3 1.4-1.7.9-3.1 2.2-4.2 4-1.1 1.7-1.9 3.9-2.4 6.4s-.7 5.4-.7 8.7c0 2.9.3 5.6.8 8s1.3 4.5 2.4 6.2 2.5 3.1 4.2 4c1.7 1 3.8 1.4 6.2 1.4 1.6 0 3-.2 4.2-.5s2.3-.7 3.2-1.2c.9-.5 1.8-1.1 2.5-1.8s1.3-1.4 1.9-2.1c.4.2.7.6.9 1 .2.4.4.9.4 1.6 0 .8-.3 1.7-.8 2.5-.6.9-1.4 1.6-2.6 2.3-1.1.7-2.6 1.3-4.4 1.7-1.8.5-3.9.7-6.3.7-3.3 0-6.1-.6-8.6-1.7s-4.5-2.8-6.2-4.9-2.9-4.6-3.8-7.6-1.3-6.2-1.3-9.8c0-3.5.4-6.8 1.3-9.7s2.2-5.5 4-7.6 3.9-3.7 6.6-4.9c2.8-1 5.8-1.6 9.2-1.6zM495.6 64.8c-2.1 0-4-.2-5.6-.7-1.6-.4-3-1.1-4.1-1.9s-1.9-1.8-2.5-2.9-.8-2.4-.8-3.7.4-2.4 1.2-3.2c.8-.8 2-1.2 3.5-1.2.1 1.4.3 2.7.6 3.9.4 1.3.9 2.4 1.6 3.3.7 1 1.6 1.7 2.7 2.3s2.4.9 3.9.9c2.9 0 5.2-.7 6.9-2.1 1.6-1.4 2.5-3.4 2.5-6.1 0-1.2-.2-2.2-.5-3.2-.3-.9-.9-1.8-1.7-2.5-.8-.8-1.8-1.5-3.1-2.2s-2.9-1.5-4.8-2.2c-2-.8-3.8-1.7-5.3-2.7-1.5-.9-2.8-2-3.8-3.2s-1.7-2.4-2.2-3.9c-.5-1.4-.7-3-.7-4.8 0-1.9.4-3.5 1.1-5s1.7-2.7 3-3.7 2.8-1.8 4.5-2.3 3.6-.8 5.7-.8c2 0 3.7.2 5.2.6s2.8.9 3.8 1.6 1.8 1.5 2.4 2.3c.5.9.8 1.8.8 2.8 0 1.4-.5 2.5-1.4 3.2s-2.2 1.1-3.7 1.1c0-1-.1-2-.4-3-.2-1-.7-1.9-1.2-2.6-.6-.8-1.3-1.4-2.3-1.9-.9-.5-2.1-.7-3.5-.7-1.3 0-2.4.2-3.4.5-1 .4-1.8.9-2.5 1.5-.7.7-1.2 1.4-1.6 2.3s-.5 1.9-.5 3.1c0 1.3.2 2.4.5 3.4s.9 1.9 1.7 2.7 1.8 1.6 3.1 2.3c1.3.7 2.9 1.5 4.8 2.2 1.9.8 3.6 1.6 5.1 2.5s2.8 1.8 3.8 2.9 1.8 2.3 2.4 3.6.8 2.8.8 4.5c0 2.1-.4 3.9-1.1 5.5-.8 1.6-1.8 3-3.2 4.1s-3.1 2-5.1 2.6c-1.9.5-4.1.8-6.6.8zM516.6 64.2v-2.7h.8c.7 0 1.4-.1 2.1-.2.6-.1 1.2-.3 1.7-.7.5-.3.9-.8 1.1-1.4.3-.6.4-1.4.4-2.5v-31.7c0-1-.1-1.8-.4-2.5-.3-.6-.7-1.1-1.1-1.4-.5-.3-1.1-.5-1.7-.7-.6-.1-1.3-.2-2.1-.2h-.8v-2.7h19v2.7h-.9c-.7 0-1.4.1-2.1.2-.7.1-1.2.3-1.7.7-.5.3-.9.8-1.1 1.4-.3.6-.4 1.4-.4 2.5v31.8c0 1 .1 1.8.4 2.5.3.6.7 1.1 1.1 1.4.5.3 1 .5 1.7.7.7.1 1.3.2 2.1.2h.9v2.7h-19v-.1zM576.3 64.2l-24.5-37.6v30.2c0 1 .1 1.8.4 2.5.3.6.7 1.1 1.1 1.4.5.3 1 .5 1.7.7.7.1 1.3.2 2.1.2h.9v2.7h-16.4v-2.7h.8c.7 0 1.4-.1 2.1-.2.6-.1 1.2-.3 1.7-.7.5-.3.9-.8 1.1-1.4.3-.6.4-1.4.4-2.5v-32c0-1-.1-1.7-.4-2.3-.3-.6-.7-1-1.2-1.4s-1.1-.5-1.7-.6c-.6-.1-1.3-.1-2.1-.1h-.7v-2.7h12l23.4 36.1v-29c0-1-.1-1.7-.4-2.3-.3-.6-.7-1-1.2-1.4-.5-.3-1.1-.5-1.7-.6-.6-.1-1.3-.1-2.1-.1h-.9v-2.7h16.4v2.7h-.8c-.7 0-1.4.1-2.1.2-.6.1-1.2.3-1.7.7-.5.3-.9.8-1.1 1.4-.3.6-.4 1.4-.4 2.5v39.2h-4.7v-.2zM613.6 64.8c-3.8 0-7.1-.6-9.9-1.7-2.8-1.1-5.2-2.8-7-4.9-1.9-2.1-3.2-4.6-4.2-7.6-.9-3-1.4-6.2-1.4-9.8 0-3.5.5-6.8 1.5-9.7s2.4-5.5 4.3-7.6c1.9-2.1 4.3-3.7 7.2-4.9 2.8-1.2 6.2-1.8 9.9-1.8 2.4 0 4.5.2 6.3.6s3.3.9 4.5 1.5c1.2.7 2.1 1.4 2.7 2.3.6.9.9 1.9.9 2.9 0 .7-.2 1.3-.5 1.9s-.7 1-1.3 1.4c-.5.4-1.2.7-1.9.9-.7.2-1.5.3-2.4.3 0-1-.1-2-.4-3-.3-1-.8-1.9-1.5-2.7s-1.6-1.4-2.7-1.9-2.5-.7-4-.7c-2.8 0-5.1.5-7.1 1.4-1.9.9-3.5 2.2-4.8 4-1.2 1.7-2.1 3.9-2.7 6.4-.6 2.5-.8 5.4-.8 8.7s.3 6.1.9 8.7c.6 2.5 1.5 4.7 2.8 6.4s3 3 5 3.9c2.1.9 4.6 1.3 7.6 1.3 1.3 0 2.5-.1 3.7-.2s2.2-.3 3.1-.6v-10.5c0-1-.1-1.7-.4-2.3-.3-.6-.7-1-1.2-1.3s-1.1-.5-1.7-.6c-.6-.1-1.3-.2-2.1-.2h-.3v-2.7h17v2.7h-.3c-.6 0-1.2.1-1.8.2s-1 .3-1.4.7c-.4.3-.7.8-1 1.4-.2.6-.4 1.5-.4 2.5v11.7c-2.2 1-4.4 1.8-6.8 2.3-2 .4-4.6.6-7.4.6zM635.8 64.2v-2.7h.8c.7 0 1.4-.1 2.1-.2.6-.1 1.2-.3 1.7-.7.5-.3.9-.8 1.1-1.4.3-.6.4-1.4.4-2.5v-31.7c0-1-.1-1.8-.4-2.5-.3-.6-.7-1.1-1.1-1.4-.5-.3-1.1-.5-1.7-.7-.6-.1-1.3-.2-2.1-.2h-.8v-2.7h19v2.7h-.9c-.7 0-1.4 0-2.1.1-.6.1-1.2.3-1.7.6s-.9.8-1.2 1.4-.4 1.4-.4 2.3v36.2h12.9c1 0 1.8-.2 2.5-.5.7-.4 1.3-.8 1.7-1.4s.8-1.2 1-1.9.4-1.4.5-2.1l.6-4.9h3.4l-.4 14h-34.9v.2zM690 60.9h12.6c1 0 1.9-.1 2.7-.4.7-.3 1.3-.7 1.8-1.2s.9-1.1 1.1-1.7c.3-.6.5-1.3.6-2.1l.4-2.8h3.4l-.4 11.4h-35v-2.7h.8c.7 0 1.4 0 2.1-.1.6-.1 1.2-.3 1.7-.6s.9-.7 1.2-1.3.4-1.4.4-2.3v-32.1c0-1-.1-1.8-.4-2.5-.3-.6-.7-1.1-1.1-1.4-.5-.3-1.1-.5-1.7-.7-.6-.1-1.3-.2-2.1-.2h-.8v-2.7h32.9l.3 11.4h-3.4l-.3-2.8c-.1-.7-.2-1.4-.5-2.1-.2-.6-.6-1.2-1.1-1.7s-1-.9-1.7-1.2c-.7-.3-1.5-.4-2.5-.4h-11v17.4h15.7v3.2h-15.7v19.6zM732.1 64.8c-2.1 0-4-.2-5.6-.7s-3-1.1-4.1-1.9-1.9-1.8-2.5-2.9-.8-2.4-.8-3.7.4-2.4 1.2-3.2 2-1.2 3.5-1.2c.1 1.4.3 2.7.6 3.9.4 1.3.9 2.4 1.6 3.3.7 1 1.6 1.7 2.7 2.3s2.4.9 3.9.9c2.9 0 5.2-.7 6.9-2.1 1.6-1.4 2.5-3.4 2.5-6.1 0-1.2-.2-2.2-.5-3.2-.3-.9-.9-1.8-1.7-2.5-.8-.8-1.8-1.5-3.1-2.2s-2.9-1.5-4.8-2.2c-2-.8-3.8-1.7-5.3-2.7-1.5-.9-2.8-2-3.8-3.2s-1.7-2.4-2.2-3.9c-.5-1.4-.7-3-.7-4.8 0-1.9.4-3.5 1.1-5 .7-1.5 1.7-2.7 3-3.7s2.8-1.8 4.5-2.3 3.6-.8 5.7-.8c2 0 3.7.2 5.2.6s2.8.9 3.8 1.6 1.8 1.5 2.4 2.3c.5.9.8 1.8.8 2.8 0 1.4-.5 2.5-1.4 3.2s-2.2 1.1-3.7 1.1c0-1-.1-2-.4-3-.2-1-.7-1.9-1.2-2.6-.6-.8-1.3-1.4-2.3-1.9-.9-.5-2.1-.7-3.5-.7-1.3 0-2.4.2-3.4.5-1 .4-1.8.9-2.5 1.5-.7.7-1.2 1.4-1.6 2.3-.4.9-.5 1.9-.5 3.1 0 1.3.2 2.4.5 3.4s.9 1.9 1.7 2.7 1.8 1.6 3.1 2.3 2.9 1.5 4.8 2.2c1.9.8 3.6 1.6 5.1 2.5s2.8 1.8 3.8 2.9 1.8 2.3 2.4 3.6c.6 1.3.8 2.8.8 4.5 0 2.1-.4 3.9-1.1 5.5s-1.8 3-3.2 4.1-3.1 2-5.1 2.6c-2 .5-4.2.8-6.6.8z"/><defs><path id="SVGID_1_" d="M64.5 0v33.6l21.5-16.8z"/></defs><clipPath id="SVGID_2_"><use xlink:href="#SVGID_1_" overflow="visible"/></clipPath><g class="st1"><defs><path id="SVGID_3_" d="M-3784.1-8402.6h5532.1v9225.2h-5532.1z"/></defs><clipPath id="SVGID_4_"><use xlink:href="#SVGID_3_" overflow="visible"/></clipPath><path class="st2" d="M45.3-19.2h59.9v72h-59.9z"/></g><defs><path id="SVGID_5_" d="M43 50.4v33.6l21.5-16.8-21.5-16.8z"/></defs><clipPath id="SVGID_6_"><use xlink:href="#SVGID_5_" overflow="visible"/></clipPath><g class="st3"><defs><path id="SVGID_7_" d="M-3784.1-8402.6h5532.1v9225.2h-5532.1z"/></defs><clipPath id="SVGID_8_"><use xlink:href="#SVGID_7_" overflow="visible"/></clipPath><path class="st4" d="M23.8 31.2h59.9v72h-59.9z"/></g><defs><path id="SVGID_9_" d="M43 16.8l21.5 16.8v-33.6z"/></defs><clipPath id="SVGID_10_"><use xlink:href="#SVGID_9_" overflow="visible"/></clipPath><g class="st5"><defs><path id="SVGID_11_" d="M-3784.1-8402.6h5532.1v9225.2h-5532.1z"/></defs><clipPath id="SVGID_12_"><use xlink:href="#SVGID_11_" overflow="visible"/></clipPath><path class="st6" d="M23.8-19.2h59.9v72h-59.9z"/></g><defs><path id="SVGID_13_" d="M64.5 33.6l-21.5 16.8v-33.6l21.5 16.8z"/></defs><clipPath id="SVGID_14_"><use xlink:href="#SVGID_13_" overflow="visible"/></clipPath><g class="st7"><defs><path id="SVGID_15_" d="M-3784.1-8402.6h5532.1v9225.2h-5532.1z"/></defs><clipPath id="SVGID_16_"><use xlink:href="#SVGID_15_" overflow="visible"/></clipPath><path class="st8" d="M23.8-2.4h59.9v72h-59.9z"/></g><defs><path id="SVGID_17_" d="M0 16.8v33.6l21.5-16.8-21.5-16.8z"/></defs><clipPath id="SVGID_18_"><use xlink:href="#SVGID_17_" overflow="visible"/></clipPath><g class="st9"><defs><path id="SVGID_19_" d="M-3784.1-8402.6h5532.1v9225.2h-5532.1z"/></defs><clipPath id="SVGID_20_"><use xlink:href="#SVGID_19_" overflow="visible"/></clipPath><path class="st10" d="M-19.2-2.4h59.9v72h-59.9z"/></g><defs><path id="SVGID_21_" d="M21.5 0v33.6l21.5-16.8z"/></defs><clipPath id="SVGID_22_"><use xlink:href="#SVGID_21_" overflow="visible"/></clipPath><g class="st11"><defs><path id="SVGID_23_" d="M-3784.1-8402.6h5532.1v9225.2h-5532.1z"/></defs><clipPath id="SVGID_24_"><use xlink:href="#SVGID_23_" overflow="visible"/></clipPath><path class="st12" d="M2.3-19.2h59.9v72h-59.9z"/></g><defs><path id="SVGID_25_" d="M43 50.4l-21.5 16.8v-33.6z"/></defs><clipPath id="SVGID_26_"><use xlink:href="#SVGID_25_" overflow="visible"/></clipPath><g class="st13"><defs><path id="SVGID_27_" d="M-3784.1-8402.6h5532.1v9225.2h-5532.1z"/></defs><clipPath id="SVGID_28_"><use xlink:href="#SVGID_27_" overflow="visible"/></clipPath><path class="st14" d="M2.3 14.4h59.9v72h-59.9z"/></g><defs><path id="SVGID_29_" d="M21.5 67.2l21.5 16.8v-33.6z"/></defs><clipPath id="SVGID_30_"><use xlink:href="#SVGID_29_" overflow="visible"/></clipPath><g class="st15"><defs><path id="SVGID_31_" d="M-3784.1-8402.6h5532.1v9225.2h-5532.1z"/></defs><clipPath id="SVGID_32_"><use xlink:href="#SVGID_31_" overflow="visible"/></clipPath><path class="st16" d="M2.3 31.2h59.9v72h-59.9z"/></g><defs><path id="SVGID_33_" d="M21.5 33.6l21.5-16.8v33.6z"/></defs><clipPath id="SVGID_34_"><use xlink:href="#SVGID_33_" overflow="visible"/></clipPath><g class="st17"><defs><path id="SVGID_35_" d="M-3784.1-8402.6h5532.1v9225.2h-5532.1z"/></defs><clipPath id="SVGID_36_"><use xlink:href="#SVGID_35_" overflow="visible"/></clipPath><path class="st18" d="M2.3-2.4h59.9v72h-59.9z"/></g><defs><path id="SVGID_37_" d="M0 50.4l21.5 16.8v-33.6z"/></defs><clipPath id="SVGID_38_"><use xlink:href="#SVGID_37_" overflow="visible"/></clipPath><g class="st19"><defs><path id="SVGID_39_" d="M-3784.1-8402.6h5532.1v9225.2h-5532.1z"/></defs><clipPath id="SVGID_40_"><use xlink:href="#SVGID_39_" overflow="visible"/></clipPath><path class="st20" d="M-19.2 14.4h59.9v72h-59.9z"/></g><defs><path id="SVGID_41_" d="M0 16.8l21.5 16.8v-33.6z"/></defs><clipPath id="SVGID_42_"><use xlink:href="#SVGID_41_" overflow="visible"/></clipPath><g class="st21"><defs><path id="SVGID_43_" d="M-3784.1-8402.6h5532.1v9225.2h-5532.1z"/></defs><clipPath id="SVGID_44_"><use xlink:href="#SVGID_43_" overflow="visible"/></clipPath><path class="st22" d="M-19.2-19.2h59.9v72h-59.9z"/></g><defs><path id="SVGID_45_" d="M64.5 33.6l21.5-16.8v33.6z"/></defs><clipPath id="SVGID_46_"><use xlink:href="#SVGID_45_" overflow="visible"/></clipPath><g class="st23"><defs><path id="SVGID_47_" d="M-3784.1-8402.6h5532.1v9225.2h-5532.1z"/></defs><clipPath id="SVGID_48_"><use xlink:href="#SVGID_47_" overflow="visible"/></clipPath><path class="st24" d="M45.3-2.4h59.9v72h-59.9z"/></g><defs><path id="SVGID_49_" d="M86 50.4l-21.5 16.8v-33.6l21.5 16.8z"/></defs><clipPath id="SVGID_50_"><use xlink:href="#SVGID_49_" overflow="visible"/></clipPath><g class="st25"><defs><path id="SVGID_51_" d="M-3784.1-8402.6h5532.1v9225.2h-5532.1z"/></defs><clipPath id="SVGID_52_"><use xlink:href="#SVGID_51_" overflow="visible"/></clipPath><path class="st26" d="M45.3 14.4h59.9v72h-59.9z"/></g><defs><path id="SVGID_53_" d="M43 50.4l21.5-16.8v33.6z"/></defs><clipPath id="SVGID_54_"><use xlink:href="#SVGID_53_" overflow="visible"/></clipPath><g class="st27"><defs><path id="SVGID_55_" d="M-3784.1-8402.6h5532.1v9225.2h-5532.1z"/></defs><clipPath id="SVGID_56_"><use xlink:href="#SVGID_55_" overflow="visible"/></clipPath><path class="st28" d="M23.8 14.4h59.9v72h-59.9z"/></g><defs><path id="SVGID_57_" d="M64.5 0v33.6l21.5-16.8z"/></defs><clipPath id="SVGID_58_"><use xlink:href="#SVGID_57_" overflow="visible"/></clipPath><g class="st29"><defs><path id="SVGID_59_" d="M-3784.1-8402.6h5532.1v9225.2h-5532.1z"/></defs><clipPath id="SVGID_60_"><use xlink:href="#SVGID_59_" overflow="visible"/></clipPath><path class="st30" d="M45.3-19.2h59.9v72h-59.9z"/></g><defs><path id="SVGID_61_" d="M43 50.4v33.6l21.5-16.8-21.5-16.8z"/></defs><clipPath id="SVGID_62_"><use xlink:href="#SVGID_61_" overflow="visible"/></clipPath><g class="st31"><defs><path id="SVGID_63_" d="M-3784.1-8402.6h5532.1v9225.2h-5532.1z"/></defs><clipPath id="SVGID_64_"><use xlink:href="#SVGID_63_" overflow="visible"/></clipPath><path class="st32" d="M23.8 31.2h59.9v72h-59.9z"/></g><defs><path id="SVGID_65_" d="M43 16.8l21.5 16.8v-33.6z"/></defs><clipPath id="SVGID_66_"><use xlink:href="#SVGID_65_" overflow="visible"/></clipPath><g class="st33"><defs><path id="SVGID_67_" d="M-3784.1-8402.6h5532.1v9225.2h-5532.1z"/></defs><clipPath id="SVGID_68_"><use xlink:href="#SVGID_67_" overflow="visible"/></clipPath><path class="st34" d="M23.8-19.2h59.9v72h-59.9z"/></g><defs><path id="SVGID_69_" d="M43 16.8v33.6l21.5-16.8z"/></defs><clipPath id="SVGID_70_"><use xlink:href="#SVGID_69_" overflow="visible"/></clipPath><g class="st35"><defs><path id="SVGID_71_" d="M-3784.1-8402.6h5532.1v9225.2h-5532.1z"/></defs><clipPath id="SVGID_72_"><use xlink:href="#SVGID_71_" overflow="visible"/></clipPath><path class="st36" d="M23.8-2.4h59.9v72h-59.9z"/></g><defs><path id="SVGID_73_" d="M0 16.8v33.6l21.5-16.8-21.5-16.8z"/></defs><clipPath id="SVGID_74_"><use xlink:href="#SVGID_73_" overflow="visible"/></clipPath><g class="st37"><defs><path id="SVGID_75_" d="M-3784.1-8402.6h5532.1v9225.2h-5532.1z"/></defs><clipPath id="SVGID_76_"><use xlink:href="#SVGID_75_" overflow="visible"/></clipPath><path class="st38" d="M-19.2-2.4h59.9v72h-59.9z"/></g><defs><path id="SVGID_77_" d="M21.5 0v33.6l21.5-16.8z"/></defs><clipPath id="SVGID_78_"><use xlink:href="#SVGID_77_" overflow="visible"/></clipPath><g class="st39"><defs><path id="SVGID_79_" d="M-3784.1-8402.6h5532.1v9225.2h-5532.1z"/></defs><clipPath id="SVGID_80_"><use xlink:href="#SVGID_79_" overflow="visible"/></clipPath><path class="st40" d="M2.3-19.2h59.9v72h-59.9z"/></g><defs><path id="SVGID_81_" d="M21.5 33.6v33.6l21.5-16.8z"/></defs><clipPath id="SVGID_82_"><use xlink:href="#SVGID_81_" overflow="visible"/></clipPath><g class="st41"><defs><path id="SVGID_83_" d="M-3784.1-8402.6h5532.1v9225.2h-5532.1z"/></defs><clipPath id="SVGID_84_"><use xlink:href="#SVGID_83_" overflow="visible"/></clipPath><path class="st42" d="M2.3 14.4h59.9v72h-59.9z"/></g><defs><path id="SVGID_85_" d="M21.5 67.2l21.5 16.8v-33.6z"/></defs><clipPath id="SVGID_86_"><use xlink:href="#SVGID_85_" overflow="visible"/></clipPath><g class="st43"><defs><path id="SVGID_87_" d="M-3784.1-8402.6h5532.1v9225.2h-5532.1z"/></defs><clipPath id="SVGID_88_"><use xlink:href="#SVGID_87_" overflow="visible"/></clipPath><path class="st44" d="M2.3 31.2h59.9v72h-59.9z"/></g><defs><path id="SVGID_89_" d="M43 16.8l-21.5 16.8 21.5 16.8z"/></defs><clipPath id="SVGID_90_"><use xlink:href="#SVGID_89_" overflow="visible"/></clipPath><g class="st45"><defs><path id="SVGID_91_" d="M-3784.1-8402.6h5532.1v9225.2h-5532.1z"/></defs><clipPath id="SVGID_92_"><use xlink:href="#SVGID_91_" overflow="visible"/></clipPath><path class="st46" d="M2.3-2.4h59.9v72h-59.9z"/></g><defs><path id="SVGID_93_" d="M0 50.4l21.5 16.8v-33.6z"/></defs><clipPath id="SVGID_94_"><use xlink:href="#SVGID_93_" overflow="visible"/></clipPath><g class="st47"><defs><path id="SVGID_95_" d="M-3784.1-8402.6h5532.1v9225.2h-5532.1z"/></defs><clipPath id="SVGID_96_"><use xlink:href="#SVGID_95_" overflow="visible"/></clipPath><path class="st48" d="M-19.2 14.4h59.9v72h-59.9z"/></g><defs><path id="SVGID_97_" d="M0 16.8l21.5 16.8v-33.6z"/></defs><clipPath id="SVGID_98_"><use xlink:href="#SVGID_97_" overflow="visible"/></clipPath><g class="st49"><defs><path id="SVGID_99_" d="M-3784.1-8402.6h5532.1v9225.2h-5532.1z"/></defs><clipPath id="SVGID_100_"><use xlink:href="#SVGID_99_" overflow="visible"/></clipPath><path class="st50" d="M-19.2-19.2h59.9v72h-59.9z"/></g><defs><path id="SVGID_101_" d="M86 16.8l-21.5 16.8 21.5 16.8z"/></defs><clipPath id="SVGID_102_"><use xlink:href="#SVGID_101_" overflow="visible"/></clipPath><g class="st51"><defs><path id="SVGID_103_" d="M-3784.1-8402.6h5532.1v9225.2h-5532.1z"/></defs><clipPath id="SVGID_104_"><use xlink:href="#SVGID_103_" overflow="visible"/></clipPath><path class="st52" d="M45.3-2.4h59.9v72h-59.9z"/></g><defs><path id="SVGID_105_" d="M64.5 33.6v33.6l21.5-16.8-21.5-16.8"/></defs><clipPath id="SVGID_106_"><use xlink:href="#SVGID_105_" overflow="visible"/></clipPath><g class="st53"><defs><path id="SVGID_107_" d="M-3784.1-8402.6h5532.1v9225.2h-5532.1z"/></defs><clipPath id="SVGID_108_"><use xlink:href="#SVGID_107_" overflow="visible"/></clipPath><path class="st54" d="M45.3 14.4h59.9v72h-59.9z"/></g><defs><path id="SVGID_109_" d="M64.5 33.6l-21.5 16.8 21.5 16.8z"/></defs><clipPath id="SVGID_110_"><use xlink:href="#SVGID_109_" overflow="visible"/></clipPath><g class="st55"><defs><path id="SVGID_111_" d="M-3784.1-8402.6h5532.1v9225.2h-5532.1z"/></defs><clipPath id="SVGID_112_"><use xlink:href="#SVGID_111_" overflow="visible"/></clipPath><path class="st56" d="M23.8 14.4h59.9v72h-59.9z"/></g></svg>