<?xml version="1.0" encoding="utf-8"?>
<!-- Generator: Adobe Illustrator 22.1.0, SVG Export Plug-In . SVG Version: 6.00 Build 0)  -->
<svg version="1.1" id="Layer_1" xmlns="http://www.w3.org/2000/svg" xmlns:xlink="http://www.w3.org/1999/xlink" x="0px" y="0px"
	 viewBox="0 0 150 50" style="enable-background:new 0 0 150 50;" xml:space="preserve">
<style type="text/css">
	.st0{fill:#FFC300;}
</style>
<title>logo</title>
<g>
	<g>
		<path class="st0" d="M50.5,28.7H45V17H34.1v11.6h-5.7L8.5,49.2v-27L28.2,1.6h5.9v10.9H45v-11h5.6V28.7z"/>
		<path class="st0" d="M77.6,15.7c0,2.7-0.5,5-1.4,7c-0.9,2-2.3,3.6-4.1,4.6c-1.7,1.1-3.7,1.7-6.1,1.7c-2.2,0-4.2-0.6-6-1.7
			c-1.7-1.1-3.2-2.7-4.1-4.6c-1-2-1.5-4.3-1.5-6.9v-1.3c0-2.7,0.5-5,1.4-7c1-2,2.3-3.6,4.1-4.6c1.7-1.1,3.7-1.7,6.1-1.7
			c2.2,0,4.2,0.6,6.1,1.7c1.7,1.1,3.2,2.7,4.1,4.6c1,2,1.4,4.4,1.4,7V15.7z M72,14.5c0-2.8-0.5-5-1.5-6.5S68,5.8,66.2,5.8
			c-1.9,0-3.3,0.7-4.3,2.2c-1,1.5-1.5,3.6-1.6,6.4v1.3c0,2.7,0.5,4.9,1.5,6.5c1,1.5,2.5,2.3,4.4,2.3s3.3-0.7,4.3-2.2
			c1-1.5,1.5-3.6,1.5-6.4C72,15.8,72,14.5,72,14.5z"/>
		<path class="st0" d="M100.5,6.1h-8.3v22.5h-5.6V6.1h-8.2V1.6h22.1L100.5,6.1L100.5,6.1z"/>
		<path class="st0" d="M119.9,16.9h-10.7v7.2h12.6v4.5h-18.2v-27h18.1V6h-12.5v6.5h10.7V16.9z"/>
		<path class="st0" d="M130.6,24.2h11.9v4.5h-17.4V1.5h5.6V24.2z"/>
	</g>
	<g>
		<path class="st0" d="M79.8,41.8c0-0.4-0.2-0.7-0.4-1c-0.3-0.2-0.8-0.5-1.6-0.7c-0.7-0.2-1.4-0.5-1.8-0.7c-1.2-0.7-1.8-1.6-1.8-2.7
			c0-0.6,0.2-1.1,0.5-1.6c0.3-0.5,0.8-0.8,1.4-1.1s1.3-0.4,2.1-0.4s1.5,0.2,2.1,0.4c0.6,0.2,1.1,0.7,1.4,1.2
			c0.3,0.5,0.5,1.1,0.5,1.7h-2.2c0-0.5-0.2-0.9-0.5-1.2c-0.3-0.2-0.7-0.4-1.3-0.4c-0.6,0-1,0.1-1.2,0.3c-0.3,0.2-0.4,0.5-0.4,0.9
			c0,0.3,0.2,0.7,0.5,0.9c0.3,0.2,0.9,0.5,1.6,0.7c1.2,0.4,2.2,0.8,2.7,1.4c0.6,0.6,0.8,1.2,0.8,2.1c0,0.9-0.3,1.7-1.1,2.2
			c-0.7,0.5-1.7,0.8-2.8,0.8c-0.8,0-1.6-0.2-2.2-0.5c-0.7-0.3-1.2-0.7-1.6-1.2c-0.3-0.5-0.5-1.2-0.5-1.8h2.2c0,1.2,0.7,1.8,2.2,1.8
			c0.5,0,0.9-0.1,1.2-0.3C79.6,42.6,79.8,42.2,79.8,41.8z"/>
		<path class="st0" d="M92,41.1c-0.1,1.2-0.5,2.1-1.3,2.7c-0.7,0.7-1.8,1-3.1,1c-1.4,0-2.5-0.5-3.2-1.4c-0.7-0.9-1.2-2.2-1.2-3.8
			v-0.7c0-1.1,0.2-2,0.6-2.7c0.3-0.8,0.9-1.4,1.6-1.8c0.7-0.4,1.5-0.7,2.4-0.7c1.2,0,2.2,0.3,3,1c0.7,0.7,1.2,1.6,1.3,2.8h-2.2
			c-0.1-0.7-0.2-1.2-0.6-1.5c-0.3-0.3-0.8-0.5-1.5-0.5c-0.7,0-1.3,0.2-1.7,0.8c-0.3,0.5-0.6,1.3-0.6,2.5v0.8c0,1.2,0.2,2,0.5,2.6
			c0.3,0.6,0.9,0.8,1.7,0.8c0.7,0,1.2-0.2,1.6-0.5c0.3-0.3,0.5-0.8,0.6-1.5C89.8,41.1,92,41.1,92,41.1z"/>
		<path class="st0" d="M99.6,42.5h-3.9L95,44.7h-2.4L96.6,34h2.1l4.1,10.8h-2.4L99.6,42.5z M96.3,40.7H99l-1.3-4.1L96.3,40.7z"/>
		<path class="st0" d="M112.5,44.7h-2.2l-4.3-7.1v7.1h-2.2V33.9h2.2l4.3,7.1v-7.1h2.2V44.7z"/>
		<path class="st0" d="M123.2,44.7H121l-4.3-7.1v7.1h-2.2V33.9h2.2L121,41v-7.1h2.2V44.7z"/>
		<path class="st0" d="M131.7,40h-4.3v2.9h5.1v1.8h-7.2V34h7.2v1.8h-5v2.6h4.3L131.7,40L131.7,40z"/>
		<path class="st0" d="M137.7,40.8H136v4h-2.2V34h4c1.2,0,2.2,0.2,3,0.8c0.7,0.6,1.1,1.4,1.1,2.4c0,0.7-0.2,1.3-0.5,1.8
			c-0.3,0.5-0.8,0.9-1.5,1.2l2.3,4.4v0.1h-2.4L137.7,40.8z M135.9,38.9h1.8c0.6,0,1-0.2,1.3-0.4c0.3-0.2,0.5-0.7,0.5-1.2
			c0-0.5-0.2-0.9-0.4-1.2c-0.2-0.3-0.7-0.4-1.3-0.4H136L135.9,38.9L135.9,38.9z"/>
	</g>
</g>
</svg>
